<svg width="1000" height="1000" viewBox="0 0 1000 1000" fill="none" xmlns="http://www.w3.org/2000/svg">
<path d="M641.797 284.235C641.797 282.666 640.676 280.873 639.331 280.201L605.931 266.306L592.032 232.912C591.36 231.568 589.566 230.447 587.997 230.447C586.428 230.447 584.635 231.568 583.962 232.912L570.064 266.306L536.663 280.201C535.318 280.873 534.197 282.666 534.197 284.235C534.197 285.804 535.318 287.597 536.663 288.269L570.064 302.164L583.962 335.558C584.635 336.902 586.428 338.023 587.997 338.023C589.566 338.023 591.36 336.902 592.032 335.558L605.931 302.164L639.331 288.269C640.676 287.597 641.797 285.804 641.797 284.235ZM748.165 322.11C748.837 323.455 750.631 324.576 752.2 324.576C753.769 324.576 755.562 323.455 756.235 322.11L770.133 288.717L803.534 274.822C804.879 274.15 806 272.357 806 270.788C806 269.219 804.879 267.426 803.534 266.754L770.133 252.859L756.235 219.465C755.562 218.121 753.769 217 752.2 217C750.631 217 748.837 218.121 748.165 219.465L734.266 252.859L700.865 266.754C699.52 267.426 698.4 269.219 698.4 270.788C698.4 272.357 699.52 274.15 700.865 274.822L734.266 288.717L748.165 322.11ZM274.835 729.89C274.163 728.545 272.369 727.424 270.8 727.424C269.231 727.424 267.438 728.545 266.765 729.89L252.867 763.283L219.466 777.178C218.121 777.85 217 779.643 217 781.212C217 782.781 218.121 784.574 219.466 785.246L252.867 799.141L266.765 832.535C267.438 833.879 269.231 835 270.8 835C272.369 835 274.163 833.879 274.835 832.535L288.734 799.141L322.135 785.246C323.48 784.574 324.6 782.781 324.6 781.212C324.6 779.643 323.48 777.85 322.135 777.178L288.734 763.283L274.835 729.89ZM770.133 436.634C770.133 435.065 769.012 433.272 767.667 432.6L734.266 418.705L720.368 385.311C719.696 383.967 717.902 382.846 716.333 382.846C714.764 382.846 712.97 383.967 712.298 385.311L698.4 418.705L664.999 432.6C663.654 433.272 662.533 435.065 662.533 436.634C662.533 438.203 663.654 439.996 664.999 440.668L698.4 454.563L712.298 487.956C712.97 489.301 714.764 490.422 716.333 490.422C717.902 490.422 719.696 489.301 720.368 487.956L734.266 454.563L767.667 440.668C769.012 439.996 770.133 438.203 770.133 436.634Z" fill="black"/>
<g clip-path="url(#clip0_69_2)">
<path d="M395.984 220.745C253.371 289.765 193.726 461.286 262.745 603.899C331.765 746.512 503.286 806.157 645.899 737.137C715.289 703.555 765.048 645.615 789.868 578.582C793.814 567.959 790.612 555.941 781.986 548.663C773.36 541.385 760.895 540.322 751.099 546.059C746.352 548.854 741.508 551.448 736.465 553.888C633.994 603.481 510.666 560.594 461.074 458.123C425.881 385.404 437.23 302.112 483.609 242.073C490.59 233.092 491.051 220.67 484.911 211.069C478.771 201.468 467.305 196.81 456.246 199.423C435.788 204.221 415.551 211.276 395.984 220.745Z" fill="black"/>
</g>
<defs>
<clipPath id="clip0_69_2">
<rect width="717.11" height="717.11" fill="white" transform="translate(42 312.393) rotate(-25.8252)"/>
</clipPath>
</defs>
</svg>
