<svg width="1000" height="1000" viewBox="0 0 1000 1000" fill="none" xmlns="http://www.w3.org/2000/svg">
<path d="M510.833 241C567.955 241 617.564 273.299 642.426 320.59L644.86 325.221L649.376 322.579C663.775 314.155 680.496 309.286 698.444 309.286C752.175 309.286 795.777 352.922 795.777 406.714C795.777 422.654 791.924 437.775 785.133 451.065L782.761 455.707L787.497 457.884C832.683 478.648 864 524.39 864 577.429C864 650.106 805.154 709 732.556 709H408.5C326.521 709 260 642.424 260 560.357C260 494.916 302.28 439.273 360.959 419.454L364.955 418.104L364.298 413.938C363.055 406.057 362.333 397.889 362.333 389.643C362.333 307.576 428.854 241 510.833 241Z" fill="black" stroke="white" stroke-width="10"/>
<path d="M291.917 411C334.519 411 371.517 435.057 390.06 470.284L392.494 474.909L397.007 472.272C407.683 466.034 420.079 462.429 433.389 462.429C473.231 462.429 505.556 494.745 505.556 534.571C505.556 546.375 502.698 557.57 497.664 567.41L495.288 572.056L500.03 574.231C533.683 589.676 557 623.698 557 663.143C557 717.192 513.181 761 459.111 761H214.75C153.606 761 104 711.407 104 650.286C104 601.548 135.528 560.099 179.292 545.336L183.291 543.987L182.633 539.818C181.704 533.94 181.167 527.853 181.167 521.714C181.167 460.593 230.773 411 291.917 411Z" fill="black" stroke="white" stroke-width="10"/>
<path d="M291.917 411C334.519 411 371.517 435.057 390.06 470.284L392.494 474.909L397.007 472.272C407.683 466.034 420.079 462.429 433.389 462.429C473.231 462.429 505.556 494.745 505.556 534.571C505.556 546.375 502.698 557.57 497.664 567.41L495.288 572.056L500.03 574.231C533.683 589.676 557 623.698 557 663.143C557 717.192 513.181 761 459.111 761H214.75C153.606 761 104 711.407 104 650.286C104 601.548 135.528 560.099 179.292 545.336L183.291 543.987L182.633 539.818C181.704 533.94 181.167 527.853 181.167 521.714C181.167 460.593 230.773 411 291.917 411Z" fill="black" stroke="white" stroke-width="10"/>
</svg>
