<svg width="1000" height="1000" viewBox="0 0 1000 1000" fill="none" xmlns="http://www.w3.org/2000/svg">
<path d="M768.1 208.235C768.1 206.666 766.979 204.873 765.634 204.201L732.234 190.306L718.335 156.912C717.663 155.568 715.869 154.447 714.3 154.447C712.731 154.447 710.938 155.568 710.265 156.912L696.367 190.306L662.966 204.201C661.621 204.873 660.5 206.666 660.5 208.235C660.5 209.804 661.621 211.597 662.966 212.269L696.367 226.164L710.265 259.558C710.938 260.902 712.731 262.023 714.3 262.023C715.869 262.023 717.663 260.902 718.335 259.558L732.234 226.164L765.634 212.269C766.979 211.597 768.1 209.804 768.1 208.235ZM874.468 246.11C875.14 247.455 876.934 248.576 878.503 248.576C880.072 248.576 881.865 247.455 882.538 246.11L896.436 212.717L929.837 198.822C931.182 198.15 932.303 196.357 932.303 194.788C932.303 193.219 931.182 191.426 929.837 190.754L896.436 176.859L882.538 143.465C881.865 142.121 880.072 141 878.503 141C876.934 141 875.14 142.121 874.468 143.465L860.569 176.859L827.168 190.754C825.823 191.426 824.703 193.219 824.703 194.788C824.703 196.357 825.823 198.15 827.168 198.822L860.569 212.717L874.468 246.11ZM200.335 290.465C199.663 289.121 197.869 288 196.3 288C194.731 288 192.938 289.121 192.265 290.465L178.367 323.859L144.966 337.754C143.621 338.426 142.5 340.219 142.5 341.788C142.5 343.357 143.621 345.15 144.966 345.822L178.367 359.717L192.265 393.11C192.938 394.455 194.731 395.576 196.3 395.576C197.869 395.576 199.663 394.455 200.335 393.11L214.234 359.717L247.635 345.822C248.98 345.15 250.1 343.357 250.1 341.788C250.1 340.219 248.98 338.426 247.635 337.754L214.234 323.859L200.335 290.465ZM896.436 360.634C896.436 359.065 895.315 357.272 893.97 356.6L860.569 342.705L846.671 309.311C845.999 307.967 844.205 306.846 842.636 306.846C841.067 306.846 839.274 307.967 838.601 309.311L824.703 342.705L791.302 356.6C789.957 357.272 788.836 359.065 788.836 360.634C788.836 362.203 789.957 363.996 791.302 364.668L824.703 378.563L838.601 411.956C839.274 413.301 841.067 414.422 842.636 414.422C844.205 414.422 845.999 413.301 846.671 411.956L860.569 378.563L893.97 364.668C895.315 363.996 896.436 362.203 896.436 360.634Z" fill="black"/>
<path d="M448.833 245C505.955 245 555.564 277.299 580.426 324.59L582.86 329.221L587.376 326.579C601.775 318.155 618.496 313.286 636.444 313.286C690.175 313.286 733.777 356.922 733.777 410.714C733.777 426.654 729.924 441.775 723.133 455.065L720.761 459.707L725.497 461.884C770.683 482.648 802 528.39 802 581.429C802 654.106 743.154 713 670.556 713H346.5C264.521 713 198 646.424 198 564.357C198 498.916 240.28 443.273 298.959 423.454L302.955 422.104L302.298 417.938C301.055 410.057 300.333 401.889 300.333 393.643C300.333 311.576 366.854 245 448.833 245Z" fill="black" stroke="white" stroke-width="10"/>
</svg>
