<svg width="1000" height="1000" viewBox="0 0 1000 1000" fill="none" xmlns="http://www.w3.org/2000/svg">
<path d="M238.335 302.453C237.663 301.108 235.869 299.987 234.3 299.987C232.731 299.987 230.938 301.108 230.265 302.453L216.367 335.846L182.966 349.741C181.621 350.414 180.5 352.206 180.5 353.775C180.5 355.344 181.621 357.137 182.966 357.809L216.367 371.705L230.265 405.098C230.938 406.442 232.731 407.563 234.3 407.563C235.869 407.563 237.663 406.442 238.335 405.098L252.234 371.705L285.635 357.809C286.98 357.137 288.1 355.344 288.1 353.775C288.1 352.206 286.98 350.414 285.635 349.741L252.234 335.846L238.335 302.453Z" fill="black"/>
<path d="M489.833 241C546.955 241 596.564 273.299 621.426 320.59L623.86 325.221L628.376 322.579C642.775 314.155 659.496 309.286 677.444 309.286C731.175 309.286 774.777 352.922 774.777 406.714C774.777 422.654 770.924 437.775 764.133 451.065L761.761 455.707L766.497 457.884C811.683 478.648 843 524.39 843 577.429C843 650.106 784.154 709 711.556 709H387.5C305.521 709 239 642.424 239 560.357C239 494.916 281.28 439.273 339.959 419.454L343.955 418.104L343.298 413.938C342.055 406.057 341.333 397.889 341.333 389.643C341.333 307.576 407.854 241 489.833 241Z" fill="black" stroke="white" stroke-width="10"/>
</svg>
